<?xml version="1.0" encoding="UTF-8" standalone="no"?>
<!DOCTYPE svg PUBLIC "-//W3C//DTD SVG 1.1//EN"
 "http://www.w3.org/Graphics/SVG/1.1/DTD/svg11.dtd">
<!-- Generated by graphviz version 2.40.1 (20161225.0304)
 -->
<!-- Title: G Pages: 1 -->
<svg width="397pt" height="258pt"
 viewBox="0.00 0.00 396.99 258.00" xmlns="http://www.w3.org/2000/svg" xmlns:xlink="http://www.w3.org/1999/xlink">
<g id="graph0" class="graph" transform="scale(1 1) rotate(0) translate(4 254)">
<title>G</title>
<polygon fill="#ffffff" stroke="transparent" points="-4,4 -4,-254 392.9873,-254 392.9873,4 -4,4"/>
<g id="clust1" class="cluster">
<title>cluster_Global</title>
<path fill="none" stroke="#c0c0c0" d="M218.9873,-8C218.9873,-8 368.9873,-8 368.9873,-8 374.9873,-8 380.9873,-14 380.9873,-20 380.9873,-20 380.9873,-230 380.9873,-230 380.9873,-236 374.9873,-242 368.9873,-242 368.9873,-242 218.9873,-242 218.9873,-242 212.9873,-242 206.9873,-236 206.9873,-230 206.9873,-230 206.9873,-20 206.9873,-20 206.9873,-14 212.9873,-8 218.9873,-8"/>
<text text-anchor="middle" x="293.9873" y="-229.2" font-family="Times,serif" font-size="11.00" fill="#c0c0c0">Global</text>
</g>
<!-- \\DataBase -->
<g id="node1" class="node">
<title>\\DataBase</title>
<polygon fill="none" stroke="#000000" points="335.9873,-214 251.9873,-214 251.9873,-178 335.9873,-178 335.9873,-214"/>
<text text-anchor="start" x="259.9873" y="-199.2" font-family="Courier,monospace" font-size="11.00" fill="#000000">«abstract»</text>
<text text-anchor="start" x="266.4873" y="-187.2" font-family="Courier,monospace" font-size="11.00" fill="#000000">DataBase</text>
</g>
<!-- \\WSDLDocumentException -->
<g id="node2" class="node">
<title>\\WSDLDocumentException</title>
<polygon fill="none" stroke="#000000" points="372.9873,-160 214.9873,-160 214.9873,-124 372.9873,-124 372.9873,-160"/>
<text text-anchor="middle" x="293.9873" y="-139.2" font-family="Courier,monospace" font-size="11.00" fill="#000000">WSDLDocumentException</text>
</g>
<!-- \\Exception -->
<g id="node5" class="node">
<title>\\Exception</title>
<ellipse fill="none" stroke="#000000" cx="71.4937" cy="-142" rx="48.9926" ry="18"/>
<text text-anchor="middle" x="71.4937" y="-138.3" font-family="Times,serif" font-size="14.00" fill="#c0c0c0">\Exception</text>
</g>
<!-- \\WSDLDocumentException&#45;&gt;\\Exception -->
<g id="edge1" class="edge">
<title>\\WSDLDocumentException&#45;&gt;\\Exception</title>
<path fill="none" stroke="#000000" d="M214.9179,-142C187.1306,-142 156.4127,-142 130.5572,-142"/>
<polygon fill="none" stroke="#000000" points="130.536,-138.5001 120.536,-142 130.5359,-145.5001 130.536,-138.5001"/>
</g>
<!-- \\WSDLDocument -->
<g id="node3" class="node">
<title>\\WSDLDocument</title>
<polygon fill="none" stroke="#000000" points="342.9873,-106 244.9873,-106 244.9873,-70 342.9873,-70 342.9873,-106"/>
<text text-anchor="middle" x="293.9873" y="-85.2" font-family="Courier,monospace" font-size="11.00" fill="#000000">WSDLDocument</text>
</g>
<!-- \\DOMDocument -->
<g id="node6" class="node">
<title>\\DOMDocument</title>
<ellipse fill="none" stroke="#000000" cx="71.4937" cy="-88" rx="71.4873" ry="18"/>
<text text-anchor="middle" x="71.4937" y="-84.3" font-family="Times,serif" font-size="14.00" fill="#c0c0c0">\DOMDocument</text>
</g>
<!-- \\WSDLDocument&#45;&gt;\\DOMDocument -->
<g id="edge2" class="edge">
<title>\\WSDLDocument&#45;&gt;\\DOMDocument</title>
<path fill="none" stroke="#000000" d="M244.8847,-88C218.0954,-88 184.2272,-88 153.5468,-88"/>
<polygon fill="none" stroke="#000000" points="153.2792,-84.5001 143.2792,-88 153.2792,-91.5001 153.2792,-84.5001"/>
</g>
<!-- \\Funciones -->
<g id="node4" class="node">
<title>\\Funciones</title>
<polygon fill="none" stroke="#000000" points="332.4873,-52 255.4873,-52 255.4873,-16 332.4873,-16 332.4873,-52"/>
<text text-anchor="middle" x="293.9873" y="-31.2" font-family="Courier,monospace" font-size="11.00" fill="#000000">Funciones</text>
</g>
</g>
</svg>
